<svg width="24" height="30" viewBox="0 0 24 30" fill="none" xmlns="http://www.w3.org/2000/svg">
<path d="M19.7126 28.8C18.1839 30.3833 16.5148 30.1333 14.9081 29.3833C13.2078 28.6167 11.6479 28.5833 9.85404 29.3833C7.60778 30.4167 6.42225 30.1167 5.08073 28.8C-2.5316 20.4167 -1.40847 7.65 7.2334 7.18333C9.33927 7.3 10.8056 8.41667 12.0379 8.51667C13.8786 8.11667 15.6413 6.96667 17.6068 7.11667C19.9622 7.31667 21.7405 8.31667 22.9104 10.1167C18.0435 13.2333 19.1979 20.0833 23.6592 22C22.7701 24.5 21.6157 26.9833 19.697 28.8167L19.7126 28.8ZM11.8819 7.08333C11.6479 3.36667 14.4714 0.3 17.716 0C18.1683 4.3 14.0658 7.5 11.8819 7.08333Z" fill="black"/>
</svg>
