<svg width="38" height="40" viewBox="0 0 38 40" fill="none" xmlns="http://www.w3.org/2000/svg">
<path d="M34.0144 16.7365H32.7579V16.6673H18.7188V23.334H27.5346C26.2485 27.2148 22.7925 30.0007 18.7188 30.0007C13.5501 30.0007 9.35937 25.5231 9.35937 20.0007C9.35937 14.4782 13.5501 10.0007 18.7188 10.0007C21.1047 10.0007 23.2753 10.9623 24.928 12.5332L29.3402 7.81898C26.5542 5.04482 22.8276 3.33398 18.7188 3.33398C10.1042 3.33398 3.11975 10.7965 3.11975 20.0007C3.11975 29.2048 10.1042 36.6673 18.7188 36.6673C27.3334 36.6673 34.3179 29.2048 34.3179 20.0007C34.3179 18.8832 34.2102 17.7923 34.0144 16.7365Z" fill="#FFC107"/>
<path d="M4.91833 12.2432L10.0434 16.259C11.4302 12.5907 14.7886 10.0007 18.7188 10.0007C21.1047 10.0007 23.2753 10.9623 24.928 12.5332L29.3402 7.81898C26.5542 5.04482 22.8276 3.33398 18.7188 3.33398C12.7272 3.33398 7.53118 6.94815 4.91833 12.2432Z" fill="#FF3D00"/>
<path d="M18.7188 36.6672C22.7481 36.6672 26.4092 35.0197 29.1772 32.3406L24.3493 27.9756C22.7306 29.2909 20.7525 30.0023 18.7188 30.0006C14.6615 30.0006 11.2165 27.2364 9.91864 23.3789L4.83179 27.5664C7.41343 32.9639 12.6563 36.6672 18.7188 36.6672Z" fill="#4CAF50"/>
<path d="M34.0145 16.7352H32.758V16.666H18.7189V23.3327H27.5347C26.9195 25.1797 25.8113 26.7937 24.347 27.9752L24.3493 27.9735L29.1773 32.3385C28.8356 32.6702 34.3179 28.3327 34.3179 19.9993C34.3179 18.8818 34.2103 17.791 34.0145 16.7352Z" fill="#1976D2"/>
</svg>
