<svg width="28" height="40" viewBox="0 0 28 40" fill="none" xmlns="http://www.w3.org/2000/svg">
<path fill-rule="evenodd" clip-rule="evenodd" d="M14.0005 9C16.4858 9 18.5005 6.9853 18.5005 4.5C18.5005 2.01472 16.4858 0 14.0005 0C11.5152 0 9.50051 2.01472 9.50051 4.5C9.50051 6.9853 11.5152 9 14.0005 9ZM27.9206 11.4404C28.2297 12.5008 27.6206 13.6111 26.5601 13.9201C24.1847 14.6124 22.0384 15.1337 20.0005 15.4812V26.9944V27V38C20.0005 39.0693 19.1594 39.9495 18.0911 39.998C17.0229 40.0464 16.1055 39.246 16.0087 38.1811L15.0087 27.1811C15.0032 27.1206 15.0005 27.0602 15.0005 27H13.0005C13.0005 27.0602 12.9978 27.1206 12.9923 27.1811L11.9923 38.1811C11.8955 39.246 10.9781 40.0464 9.90991 39.998C8.84171 39.9495 8.00051 39.0693 8.00051 38V15.4443C5.96791 15.0938 3.82931 14.583 1.46581 13.9272C0.401408 13.6319 -0.221992 12.5296 0.0733081 11.4653C0.368708 10.4009 1.47091 9.7775 2.53531 10.0728C7.14361 11.3515 10.6063 11.9845 14.0092 11.9997C17.4052 12.0149 20.8592 11.4152 25.4409 10.0799C26.5014 9.7708 27.6116 10.3799 27.9206 11.4404Z" fill="#051B72"/>
</svg>
