<svg width="37" height="30" viewBox="0 0 37 30" fill="none" xmlns="http://www.w3.org/2000/svg">
<path fill-rule="evenodd" clip-rule="evenodd" d="M34.451 1C34.451 0.44772 34.0033 0 33.451 0H22.2354C21.6831 0 21.2354 0.44772 21.2354 1V3.0274L20.2378 13.6806C19.3206 15.4368 17.619 16.9762 15.6285 18.2595C13.5934 19.5717 11.3493 20.5567 9.5822 21.1985C8.2292 21.6898 6.895 22.3559 5.7265 23.3067L5.0565 23.8519H1.3336C0.914731 23.8519 0.540241 24.1129 0.395341 24.5059C0.107571 25.2864 -0.164769 26.546 0.121451 27.6876C0.271161 28.2848 0.585681 28.8903 1.16803 29.3387C1.74925 29.7861 2.49724 30 3.37277 30C5.9363 30 7.3002 29.8299 8.1364 29.5641C8.5712 29.4259 8.8613 29.2632 9.0935 29.1003C9.1388 29.1264 9.1786 29.152 9.2164 29.1771C9.2357 29.1899 9.2588 29.2059 9.2855 29.2244C9.4201 29.3175 9.6451 29.4731 9.9192 29.5926C10.5814 29.8813 11.5467 30 13.5687 30C15.5337 30 16.8251 29.7627 17.7961 29.3882C18.1043 29.2694 18.3916 29.1518 18.6644 29.0401C19.6091 28.6533 20.3804 28.3376 21.2481 28.2861C22.0377 28.2392 22.9399 28.204 23.7461 28.2166C24.5945 28.2298 25.2015 28.2961 25.4829 28.3915C25.7869 28.4946 26.0545 28.6261 26.3416 28.7833C26.4217 28.8272 26.5108 28.8775 26.6058 28.9311C26.8217 29.053 27.0683 29.1922 27.3078 29.3116C28.0819 29.6976 28.9985 30 30.3922 30C31.548 30 33.1634 29.7119 34.522 28.7906C35.9354 27.8323 37 26.2301 37 23.8148C37 22.0926 36.4725 20.3501 35.8731 18.9395C35.0777 17.0676 34.451 15.2388 34.451 13.3949V1ZM30.5 16C30.5 15.4477 30.0523 15 29.5 15C28.9493 15 28.5025 15.4452 28.5 15.9954L28.4998 16.0067C28.4994 16.0196 28.4986 16.0425 28.4968 16.0745C28.4931 16.1385 28.4853 16.2382 28.4691 16.365C28.4364 16.6202 28.3704 16.9767 28.2388 17.3713C27.9749 18.1632 27.468 19.053 26.4855 19.6425C26.012 19.9267 25.8584 20.5409 26.1425 21.0145C26.4267 21.4881 27.0409 21.6416 27.5145 21.3575C29.0321 20.447 29.7752 19.0868 30.1362 18.0037C30.3172 17.4608 30.4074 16.9735 30.4528 16.6194C30.4756 16.4415 30.4874 16.295 30.4935 16.1892C30.4965 16.1362 30.4982 16.0932 30.499 16.0614C30.4995 16.0454 30.4997 16.0323 30.4999 16.022L30.5 16.0088V16.0038V16C30.5 15.9996 30.5 16 29.5 16H30.5Z" fill="#051B72"/>
</svg>
