<svg width="29" height="40" viewBox="0 0 29 40" fill="none" xmlns="http://www.w3.org/2000/svg">
<path d="M23.1895 8C25.3986 8 27.1895 6.2091 27.1895 4C27.1895 1.79086 25.3986 0 23.1895 0C20.9803 0 19.1895 1.79086 19.1895 4C19.1895 6.2091 20.9803 8 23.1895 8Z" fill="#051B72"/>
<path d="M1.65905 5.66212C1.17135 5.40289 0.565846 5.58807 0.306646 6.07571C0.0474157 6.56341 0.232646 7.16891 0.720246 7.42811L4.43455 9.40251L2.76365 10.1021C2.40985 10.2502 2.17195 10.5876 2.15125 10.9706C2.13055 11.3536 2.33075 11.7147 2.66655 11.9L7.60325 14.6247C8.08675 14.8916 8.69505 14.7159 8.96195 14.2324C9.22885 13.7489 9.05314 13.1406 8.56964 12.8737L5.44355 11.1483L7.15345 10.4325C7.50995 10.2832 7.74845 9.94201 7.76625 9.55611C7.78405 9.17011 7.57785 8.80841 7.23665 8.62701L1.65905 5.66212Z" fill="#051B72"/>
<path d="M11.3685 13.6866C12.9363 11.1197 15.5157 9.09375 19.1895 9.09375C20.1052 9.09375 20.9039 9.71555 21.1284 10.6033L22.8785 17.5219L26.9323 19.1434C27.9578 19.5538 28.4567 20.7176 28.0464 21.7432C27.6362 22.7688 26.4723 23.2677 25.4467 22.8575L20.4467 20.8575C19.8522 20.6197 19.4076 20.1116 19.2506 19.4909L18.494 16.4998C18.266 17.0527 18.0417 17.6444 17.8273 18.2696C16.9336 20.8758 16.2638 23.9163 16.1885 26.9375C16.1892 26.9584 16.1895 26.9794 16.1895 27.0005V38.0005C16.1895 39.105 15.2941 40.0005 14.1895 40.0005C13.0849 40.0005 12.1895 39.105 12.1895 38.0005V28.2195L12.1373 28.1529C11.8357 27.7664 11.4298 27.2241 11.02 26.6077C10.6144 25.9979 10.1799 25.2779 9.84015 24.5399C9.51955 23.8433 9.18945 22.9341 9.18945 22.0005C9.18945 19.3003 9.83865 16.1912 11.3685 13.6866Z" fill="#051B72"/>
<path d="M0.021266 15.9788C0.132046 15.4184 0.644676 15.0515 1.16618 15.1595L4.83278 15.9186C5.18418 15.9914 5.46508 16.2678 5.56188 16.6362C5.65868 17.0045 5.55528 17.4038 5.29368 17.6726L4.49618 18.4918L6.43428 18.996C6.94998 19.1302 7.25858 19.6887 7.12338 20.2434C6.98828 20.7982 6.46058 21.1392 5.94488 21.005L2.31978 20.0619C1.98008 19.9736 1.71558 19.6938 1.62898 19.3314C1.54228 18.969 1.64728 18.581 1.90298 18.3183L2.62698 17.5746L0.764977 17.1891C0.243477 17.0811 -0.089514 16.5393 0.021266 15.9788Z" fill="#051B72"/>
</svg>
