<svg width="21" height="40" viewBox="0 0 21 40" fill="none" xmlns="http://www.w3.org/2000/svg">
<path d="M5.1338 15.672L8.3303 0.79C8.4293 0.32915 8.8367 0 9.308 0H19.8652C20.4674 0 20.9345 0.52795 20.8141 1.118C19.2655 8.7051 12 16.8205 12 16.8205L13.281 18.9751C14.0763 20.313 14.4642 21.8539 14.397 23.4089L14 32.5897L15.8435 34.8508C16.555 35.7234 16.7258 36.9179 16.2873 37.9549L16.2317 38.0866C15.5688 39.6545 13.707 40.3203 12.2002 39.5283C11.4231 39.1199 10.5305 38.9872 9.6682 39.152L5.6861 39.9132C5.5623 39.9368 5.4366 39.9487 5.3106 39.9487H2C0.8954 39.9487 0 39.0533 0 37.9487V36.7949H3L9.5 34.1667L5.301 21.4141C5.1016 20.8086 5 20.1751 5 19.5376V16.932C5 16.5084 5.0448 16.0861 5.1338 15.672Z" fill="#051B72"/>
</svg>
