<svg width="40" height="25" viewBox="0 0 40 25" fill="none" xmlns="http://www.w3.org/2000/svg">
<path d="M0 24.9627V14.9627L12.5227 14.9626C13.5039 14.9626 14.4813 15.083 15.4332 15.3209L18 15.9626L18.1556 15.7136C19.6688 13.2926 21.9955 11.4904 24.718 10.6306L30 8.96256V6.86575C30 5.95745 30.3091 5.07616 30.8765 4.36696L34 0.462555L34.3668 0.765255C35.1823 1.43795 35.3333 2.62925 34.7115 3.48425L34 4.46256L36 2.96255L36.9283 1.10606C37.4863 -0.0100448 38.9189 -0.348245 39.9171 0.400455L40 0.462555L39 7.46256L34 10.4626L28.9534 16.5906C27.6718 18.1469 26.0188 19.3551 24.1469 20.1039L22 20.9626L21.1716 21.7911C20.4214 22.5412 19.404 22.9626 18.3431 22.9626L17 22.9627L12.8474 24.3468C11.6238 24.7547 10.3425 24.9627 9.0527 24.9627H0Z" fill="#051B72"/>
</svg>
