<svg width="16" height="18" viewBox="0 0 16 18" fill="none" xmlns="http://www.w3.org/2000/svg">
<path d="M5.47171 7.9155C6.88832 8.48188 8.19313 9.71036 9.00721 11.0058C9.14646 11.2274 9.35199 11.5755 9.44237 11.8145C9.46379 11.8708 9.40153 11.8781 9.37944 11.8607C9.37676 11.8587 9.38881 11.8159 9.35534 11.7964C7.80885 10.9154 6.17801 10.0705 4.32356 10.1274C4.2064 10.1308 3.86028 10.1703 3.78396 10.2419C3.73978 10.2828 3.76321 10.335 3.74848 10.3631C3.7284 10.4006 3.66748 10.3805 3.68957 10.4314C3.76924 10.5439 3.79066 10.6992 3.85292 10.819C4.02096 11.1404 4.61545 11.7904 4.87789 12.0763C7.34022 14.7515 11.0525 15.4016 14.3161 13.829C14.3369 13.8189 14.5096 13.7513 14.517 13.7593C14.5284 13.8163 14.5016 13.8537 14.4788 13.9013C14.2666 14.3465 13.0502 15.506 12.6163 15.8347C11.7112 16.5203 10.6749 16.9313 9.60907 17.2942L9.9197 17.3919C10.7719 17.4087 11.6905 17.404 12.534 17.5265C12.5896 17.5345 13.0227 17.5854 12.8487 17.7019C12.6773 17.7929 12.5139 17.7628 12.3445 17.7869C10.3194 18.0728 7.64817 18.0078 5.56678 17.9496C4.85445 17.9295 3.89041 17.9081 3.20888 17.7876C3.11114 17.7702 2.86009 17.7923 2.80318 17.6691C2.76971 17.5968 3.03683 17.5325 3.08503 17.5258C3.96941 17.4053 4.91404 17.4676 5.79708 17.3913C5.86737 17.3852 6.04009 17.3578 6.07558 17.2935C5.52594 17.0639 4.93546 16.9199 4.3952 16.6662C2.26426 15.6674 0.229721 13.3054 0.0188362 10.8967C-0.274394 7.55599 2.91499 6.89254 5.47171 7.9155Z" fill="#042F40"/>
<path d="M12.2582 4.44901C12.04 2.73381 9.73833 1.32791 8.28021 2.44928C8.11887 2.57314 8.01376 2.76595 7.85242 2.89114C7.72388 2.88043 7.70245 2.75189 7.64287 2.69163C6.51681 1.56223 4.78086 2.07572 3.93331 3.25801C3.6702 3.62421 3.34551 4.46106 3.38903 4.90693C3.39371 4.95714 3.39438 5.00869 3.4553 5.02208C3.72242 4.54876 4.22319 4.12498 4.73735 3.9315C5.2515 3.73802 6.13923 3.79828 6.39832 4.42624C6.403 4.43829 6.46526 4.66792 6.46593 4.68064C6.47798 4.84266 6.29455 5.20083 6.15998 5.30326C5.91161 5.49339 5.50524 5.56904 5.22941 5.70628C4.81099 5.91449 4.41332 6.25123 4.30487 6.72187C4.17499 6.77008 4.05984 6.67233 3.96143 6.66028C3.84025 6.64555 3.16944 6.64154 3.13396 6.62011C3.01881 6.35299 2.85746 6.10596 2.76708 5.82545C2.39151 4.66525 2.67737 3.40596 3.33681 2.39974C5.01384 -0.16033 8.60892 -0.770891 11.0779 1.04807C12.1993 1.8742 13.1573 3.40797 13.0763 4.84065C13.0201 5.83482 12.3225 6.51902 11.3779 6.7192C11.3076 6.41659 11.0726 6.12136 10.8262 5.93859C10.2311 5.49807 8.92425 5.4338 9.29915 4.40147C9.32459 4.33118 9.51807 4.1049 9.58368 4.06071C10.2478 3.61015 11.1355 3.8746 11.6885 4.34859C11.9027 4.53202 12.0614 4.81655 12.2582 5.02141C12.2422 4.83998 12.281 4.62508 12.2582 4.44901ZM5.47243 4.54474C5.34657 4.46708 5.13702 4.43495 4.9951 4.48315C4.68781 4.58893 4.55123 5.06961 4.9094 5.02275C5.04531 5.00467 4.99844 4.83663 5.1946 4.844C5.35862 4.85002 5.37067 5.00333 5.52934 5.02275C5.69135 4.91898 5.61101 4.62976 5.47176 4.54407L5.47243 4.54474ZM10.6783 4.47646C10.3804 4.37001 9.87155 4.60299 10.0978 4.94174C10.2518 5.17204 10.3542 4.81722 10.5029 4.83262C10.6026 4.84333 10.685 4.98258 10.7278 4.99998C10.9963 5.10643 11.0425 4.80985 10.9052 4.64181C10.8965 4.6311 10.6917 4.48181 10.6783 4.47712V4.47646Z" fill="#042F40"/>
<path d="M13.9473 5.42787C14.1361 5.55708 14.8276 6.69719 14.9535 6.95628C15.5132 8.10778 15.6584 9.36036 15.5955 10.633L15.4322 11.6312C15.2333 11.5736 15.0465 11.4746 14.8484 11.4136C13.64 11.0387 12.3305 11.0106 11.0658 11.176L10.1306 11.3882L9.04938 9.7915C8.70058 9.23383 8.02241 8.79265 7.63009 8.32535C7.60398 8.29389 7.56248 8.28853 7.57854 8.22828C7.73185 8.1841 7.89788 8.21489 8.05119 8.19347C8.10007 8.18677 8.13622 8.1379 8.18509 8.13121C9.80857 7.89622 12.619 7.7168 13.563 6.17165C13.6072 6.09935 13.7846 5.72578 13.7946 5.68495C13.814 5.60327 13.7933 5.47339 13.8288 5.38033C13.8803 5.37029 13.9098 5.40176 13.9473 5.4272V5.42787Z" fill="#042F40"/>
<path d="M7.95947 11.874C8.44886 12.0922 8.94628 12.4008 9.44839 12.6264C9.66864 12.7249 10.0944 12.9384 10.3368 12.8681C10.553 12.8059 10.4881 12.3024 10.393 12.1558C10.4506 12.1558 10.4948 12.1083 10.5477 12.0969C12.0158 11.7903 13.6426 11.8653 15.0459 12.4202C15.0566 12.4865 15.2012 12.4684 15.1704 12.5307C15.0887 12.6954 13.7745 13.2383 13.5395 13.3214C10.7318 14.3088 8.12818 13.8958 5.90352 11.9235C5.70267 11.7454 5.30969 11.3558 5.15973 11.1469C5.1296 11.1047 5.08475 11.0652 5.09211 11.0097C5.24141 10.9661 5.36325 11.0478 5.47572 11.0672C6.32529 11.2159 7.17016 11.5211 7.95947 11.8733V11.874Z" fill="#042F40"/>
<path d="M8.58286 6.09055C8.35591 6.33691 7.82033 6.40922 7.50634 6.32151C6.49811 6.03967 6.80741 4.63042 8.01648 4.76432C8.64512 4.83394 9.02739 5.60785 8.58286 6.09122V6.09055Z" fill="#042F40"/>
<path d="M1.81972 5.28406C1.79495 5.79822 2.06609 6.26618 2.27831 6.72343C2.19462 6.73548 2.08483 6.70603 2.0065 6.72477C1.58406 6.82519 1.16029 7.08361 0.791405 7.33266C0.749897 7.36077 0.49081 7.52212 0.47876 7.50873C0.628722 7.00394 0.893165 6.50518 1.17167 6.05931C1.28682 5.87521 1.44816 5.62081 1.59143 5.46482C1.62088 5.43335 1.78491 5.24523 1.81972 5.28406Z" fill="#042F40"/>
<path d="M6.84611 6.67178C7.24043 6.84852 7.74321 7.07079 8.2433 6.95162C8.26673 6.94626 8.26205 6.89806 8.29017 6.88936C8.58139 6.80032 8.63026 6.76484 8.86324 6.64835C9.2194 6.47094 9.4256 6.75479 9.11429 7.03129C8.6162 7.47448 7.5504 7.5113 6.96126 7.25824C6.79456 7.1866 6.16391 6.84584 6.47991 6.62224C6.61045 6.52985 6.73431 6.6209 6.84544 6.67111L6.84611 6.67178Z" fill="#042F40"/>
</svg>
