<svg preserveAspectRatio="none" width="100%" height="100%" overflow="visible" style="display: block;" viewBox="0 0 7.5 15" fill="none" xmlns="http://www.w3.org/2000/svg">
<g id="Container">
<path id="Icon" d="M0 0H7.5V5.8875C7.5 6.175 7.4375 6.43125 7.3125 6.65625C7.1875 6.88125 7.0125 7.0625 6.7875 7.2L4.125 8.775L4.65 10.5H7.5L5.175 12.15L6.075 15L3.75 13.2375L1.425 15L2.325 12.15L0 10.5H2.85L3.375 8.775L0.7125 7.2C0.4875 7.0625 0.3125 6.88125 0.1875 6.65625C0.0625 6.43125 0 6.175 0 5.8875V0ZM1.5 1.5V5.8875L3 6.7875V1.5H1.5ZM6 1.5H4.5V6.7875L6 5.8875V1.5Z" fill="#042F40"/>
</g>
</svg>
