<svg preserveAspectRatio="none" width="100%" height="100%" overflow="visible" style="display: block;" viewBox="0 0 25 25" fill="none" xmlns="http://www.w3.org/2000/svg">
<g id="Container">
<path id="Icon" d="M10 15H15V12.5H10V15V15M10 11.25H20V8.75H10V11.25V11.25M10 7.5H20V5H10V7.5V7.5M7.5 20C6.8125 20 6.22396 19.7552 5.73438 19.2656C5.24479 18.776 5 18.1875 5 17.5V2.5C5 1.8125 5.24479 1.22396 5.73438 0.734375C6.22396 0.244792 6.8125 0 7.5 0H22.5C23.1875 0 23.776 0.244792 24.2656 0.734375C24.7552 1.22396 25 1.8125 25 2.5V17.5C25 18.1875 24.7552 18.776 24.2656 19.2656C23.776 19.7552 23.1875 20 22.5 20H7.5V20M7.5 17.5H22.5V17.5V17.5V2.5V2.5V2.5H7.5V2.5V2.5V17.5V17.5V17.5V17.5M2.5 25C1.8125 25 1.22396 24.7552 0.734375 24.2656C0.244792 23.776 0 23.1875 0 22.5V5H2.5V22.5V22.5V22.5H20V25H2.5V25M7.5 2.5V2.5V2.5V2.5V17.5V17.5V17.5V17.5V17.5V17.5V2.5V2.5V2.5V2.5" fill="#C8EFFF"/>
</g>
</svg>
