<svg preserveAspectRatio="none" width="100%" height="100%" overflow="visible" style="display: block;" viewBox="0 0 13.5 13.5" fill="none" xmlns="http://www.w3.org/2000/svg">
<g id="Container">
<path id="Icon" d="M1.5 13.5C1.0875 13.5 0.734375 13.3531 0.440625 13.0594C0.146875 12.7656 0 12.4125 0 12V9H1.5V12V12V12H4.5V13.5H1.5V13.5M9 13.5V12H12V12V12V9H13.5V12C13.5 12.4125 13.3531 12.7656 13.0594 13.0594C12.7656 13.3531 12.4125 13.5 12 13.5H9V13.5M0 4.5V1.5C0 1.0875 0.146875 0.734375 0.440625 0.440625C0.734375 0.146875 1.0875 0 1.5 0H4.5V1.5H1.5V1.5V1.5V4.5H0V4.5M12 4.5V1.5V1.5V1.5H9V0H12C12.4125 0 12.7656 0.146875 13.0594 0.440625C13.3531 0.734375 13.5 1.0875 13.5 1.5V4.5H12V4.5M6.75 10.5C5.7125 10.5 4.82813 10.1344 4.09688 9.40312C3.36563 8.67187 3 7.7875 3 6.75C3 5.7125 3.36563 4.82813 4.09688 4.09688C4.82813 3.36563 5.7125 3 6.75 3C7.7875 3 8.67187 3.36563 9.40312 4.09688C10.1344 4.82813 10.5 5.7125 10.5 6.75C10.5 7.7875 10.1344 8.67187 9.40312 9.40312C8.67187 10.1344 7.7875 10.5 6.75 10.5V10.5M6.75 9C7.375 9 7.90625 8.78125 8.34375 8.34375C8.78125 7.90625 9 7.375 9 6.75C9 6.125 8.78125 5.59375 8.34375 5.15625C7.90625 4.71875 7.375 4.5 6.75 4.5C6.125 4.5 5.59375 4.71875 5.15625 5.15625C4.71875 5.59375 4.5 6.125 4.5 6.75C4.5 7.375 4.71875 7.90625 5.15625 8.34375C5.59375 8.78125 6.125 9 6.75 9V9M6.75 6.75V6.75V6.75V6.75V6.75V6.75V6.75V6.75V6.75V6.75" fill="#042F40"/>
</g>
</svg>
